<?xml version="1.0" standalone="no"?>
<!DOCTYPE svg PUBLIC "-//W3C//DTD SVG 20010904//EN"
 "http://www.w3.org/TR/2001/REC-SVG-20010904/DTD/svg10.dtd">
<svg version="1.0" xmlns="http://www.w3.org/2000/svg"
 width="1024.000000pt" height="1024.000000pt" viewBox="0 0 1024.000000 1024.000000"
 preserveAspectRatio="xMidYMid meet">
<metadata>
Created by potrace 1.16, written by Peter Selinger 2001-2019
</metadata>
<g transform="translate(0.000000,1024.000000) scale(0.100000,-0.100000)"
fill="#000000" stroke="none">
<path d="M0 5120 l0 -5120 1956 0 1955 0 -6 43 c-3 23 -8 103 -10 177 -2 74
-6 148 -10 164 -3 16 -13 56 -21 90 -18 76 -40 202 -50 281 -8 70 -9 78 -24
125 -27 89 -51 315 -70 645 -14 258 -20 348 -31 500 -12 158 -20 858 -11 935
6 50 2 166 -12 325 -15 167 -16 220 -7 291 12 85 45 154 72 154 40 0 290 -110
336 -147 66 -55 145 -132 174 -173 51 -70 142 -244 200 -383 77 -180 106 -234
132 -241 39 -10 152 71 286 204 265 263 538 494 721 612 143 91 407 231 488
257 111 37 289 77 299 67 4 -4 2 -15 -5 -24 -6 -9 -25 -42 -41 -72 -17 -30
-30 -51 -31 -46 -1 25 -51 -64 -55 -99 -1 -5 -4 -17 -7 -25 -19 -47 -108 -310
-113 -335 -4 -16 -19 -59 -35 -95 -51 -114 -89 -231 -120 -365 -17 -71 -35
-148 -40 -170 -10 -44 -18 -137 -25 -320 -8 -185 -15 -263 -31 -355 -22 -124
-24 -144 -30 -263 -3 -59 -9 -105 -12 -103 -16 10 7 -266 34 -404 22 -113 33
-261 38 -505 3 -182 17 -380 41 -595 2 -19 4 -61 4 -92 l1 -58 1750 0 1750 0
0 80 0 80 320 0 320 0 0 -80 0 -80 80 0 80 0 0 5120 0 5120 -5120 0 -5120 0 0
-5120z m4823 3445 c43 -55 94 -114 113 -132 39 -36 43 -53 14 -53 -11 0 -62
-21 -113 -48 -93 -48 -153 -74 -194 -87 -13 -3 -23 -9 -23 -13 0 -14 -62 -114
-67 -109 -2 3 -7 46 -10 95 -11 189 74 452 149 464 31 5 40 -3 131 -117z m414
-47 c37 -46 129 -146 204 -223 74 -77 151 -160 170 -185 18 -25 48 -61 66 -80
18 -19 33 -38 33 -42 0 -4 17 -16 38 -27 20 -11 50 -32 65 -46 21 -20 31 -24
41 -16 7 6 30 10 52 8 34 -2 39 1 42 22 2 13 -2 35 -10 49 -7 14 -12 47 -10
76 1 28 3 84 3 123 1 40 5 70 10 67 5 -3 6 2 3 10 -3 9 -1 16 5 16 6 0 11 -4
11 -8 0 -5 7 -17 16 -28 15 -18 15 -18 10 0 -6 18 -5 18 21 1 16 -10 39 -27
53 -39 25 -22 38 -31 113 -81 20 -14 37 -30 37 -37 0 -6 -8 -4 -18 5 -28 25
-32 21 -15 -15 15 -29 15 -37 -7 -117 -13 -47 -29 -115 -35 -151 -7 -36 -17
-83 -23 -105 -53 -196 -75 -378 -50 -425 23 -43 89 -39 133 8 36 37 91 132 98
168 3 16 13 58 21 94 26 108 25 204 -4 284 l-25 68 28 22 c15 12 27 28 27 35
0 8 13 26 28 40 15 14 36 39 45 54 10 15 22 25 26 22 5 -2 12 7 15 20 4 14 11
23 16 20 11 -7 23 18 41 88 14 57 33 59 63 7 19 -32 21 -50 19 -200 0 -99 -7
-199 -17 -250 -8 -46 -14 -86 -12 -87 1 -2 29 17 61 42 31 25 61 45 65 45 5 0
6 8 3 18 -2 10 7 27 23 42 26 25 26 25 20 3 -11 -34 20 -30 38 5 8 15 15 23
16 17 0 -5 10 1 21 15 17 20 19 21 14 5 -4 -11 -13 -39 -21 -63 -7 -23 -29
-82 -49 -131 -19 -49 -35 -98 -35 -110 0 -12 -9 -47 -19 -79 -13 -38 -23 -114
-30 -227 -26 -387 -29 -350 32 -319 75 39 260 208 308 281 10 15 42 51 70 80
68 69 91 69 100 -2 4 -27 16 -75 28 -106 23 -60 87 -133 95 -108 18 53 73 348
78 419 3 31 6 35 30 33 14 -1 45 -13 68 -28 l42 -26 -4 -128 -3 -127 29 -34
28 -34 -5 -156 c-5 -170 -31 -290 -67 -322 -11 -9 -18 -23 -14 -31 3 -9 -21
-42 -64 -87 -61 -63 -76 -73 -118 -81 -30 -6 -59 -5 -79 1 -16 5 -46 10 -65 9
-19 0 -46 0 -60 0 -40 1 -46 -13 -70 -169 -15 -98 -21 -121 -30 -115 -4 3 -24
-22 -43 -54 -19 -32 -68 -101 -109 -152 -41 -52 -107 -142 -146 -200 -75 -111
-177 -230 -216 -251 -46 -26 -179 -131 -297 -235 -20 -18 -52 -39 -71 -47 -19
-8 -40 -22 -48 -30 -7 -9 -17 -16 -23 -16 -24 0 -133 -60 -145 -80 -9 -14 -19
-19 -32 -15 -12 4 -52 -9 -106 -35 -148 -70 -216 -80 -399 -60 -90 11 -155 28
-155 41 0 4 -52 40 -115 79 -238 148 -409 326 -463 485 -6 17 -18 66 -27 110
-21 105 -35 139 -90 224 -87 134 -103 189 -129 433 -10 92 -19 136 -34 160
-32 52 -89 168 -114 233 -25 66 -24 39 -17 592 3 212 6 240 19 233 16 -9 154
-106 226 -160 23 -16 47 -30 55 -30 11 1 11 3 -2 13 -9 7 -22 30 -29 52 -21
66 -38 103 -61 129 -72 83 -121 236 -123 383 -1 115 9 131 57 85 18 -18 38
-32 43 -32 6 0 19 -19 29 -42 16 -37 19 -40 22 -20 5 24 7 23 125 -76 16 -13
16 -11 7 23 -18 65 8 175 58 243 26 35 68 59 160 94 32 11 87 39 122 60 l65
39 113 -115 c62 -63 113 -118 114 -123 0 -4 13 -19 30 -31 36 -29 59 -17 59
32 0 37 -76 266 -125 378 -19 43 -35 81 -35 83 0 19 29 -7 87 -77z m1208
-3139 c-9 -24 -19 -54 -22 -66 -3 -13 -10 -23 -15 -23 -6 0 -8 -14 -6 -31 3
-18 1 -52 -4 -78 -5 -25 -11 -68 -14 -96 -3 -27 -8 -53 -11 -58 -2 -4 -6 -28
-9 -54 -3 -26 -8 -51 -13 -57 -5 -6 -12 -25 -15 -42 -9 -43 -123 -164 -215
-230 -192 -136 -255 -185 -380 -293 -73 -64 -168 -146 -210 -182 -84 -73 -334
-328 -446 -454 -72 -82 -181 -226 -229 -302 -24 -39 -46 -55 -46 -35 0 4 -5
36 -10 72 -5 36 -15 152 -20 258 -13 222 -2 315 51 453 27 71 43 93 124 179
102 107 146 166 164 220 8 24 11 106 9 262 -2 126 -2 228 0 228 1 0 13 -6 25
-14 83 -52 356 -67 507 -27 177 47 467 172 533 231 19 16 38 30 42 30 4 0 55
41 113 92 113 96 127 99 97 17z m-4140 -99 c-18 -20 -17 -20 11 -21 74 -1 73
-6 -46 -148 -61 -73 -123 -152 -137 -175 -43 -66 -109 -205 -131 -276 -17 -53
-41 -179 -42 -217 0 -4 -5 -1 -11 7 -8 11 -9 -4 -6 -55 5 -71 31 -155 48 -155
5 0 9 -10 9 -22 0 -34 70 -91 176 -144 l99 -49 105 1 c118 1 212 23 370 85 86
34 96 36 108 21 7 -9 11 -21 9 -27 -1 -5 -56 -37 -120 -70 -100 -51 -126 -70
-176 -125 -74 -83 -154 -203 -204 -305 -56 -114 -67 -148 -82 -250 -14 -96 -4
-211 29 -355 8 -36 22 -164 32 -285 17 -227 16 -400 -6 -635 -6 -65 -11 -424
-12 -828 -1 -392 -5 -715 -10 -718 -4 -3 -19 3 -33 12 -24 16 -25 15 -25 -4 0
-12 -5 -24 -11 -27 -6 -4 -8 -13 -5 -21 3 -8 1 -14 -5 -14 -7 0 -10 44 -8 133
1 72 1 142 1 155 -2 26 -19 30 -25 5 -2 -10 -4 0 -4 22 0 30 2 35 8 20 7 -19
8 -19 8 -1 1 10 -5 24 -13 30 -8 6 -16 29 -19 52 -2 23 -8 47 -13 55 -4 7 -9
34 -9 59 -1 25 -20 153 -42 285 -47 272 -74 487 -78 621 -1 51 -5 96 -8 100
-3 5 -8 58 -11 118 -3 60 -17 176 -31 258 -14 82 -23 153 -20 159 14 22 -53
126 -148 230 -55 60 -102 109 -106 109 -3 0 -42 32 -86 71 -80 71 -222 183
-316 249 -27 20 -60 47 -72 61 -27 32 -113 86 -159 100 -18 6 -145 14 -283 19
-169 6 -263 13 -291 22 -57 20 -150 83 -216 149 -47 45 -58 62 -58 88 0 51 43
87 112 96 81 10 129 0 263 -58 108 -47 128 -52 208 -55 111 -5 137 8 137 69 0
24 4 38 10 34 6 -3 10 2 10 13 0 32 -38 71 -76 78 -45 8 -83 46 -163 162 -35
51 -89 118 -118 148 -58 58 -87 113 -98 179 -3 22 -8 51 -11 63 -3 13 -1 21 4
18 5 -3 12 21 15 54 7 67 40 140 62 140 32 0 108 -104 166 -230 24 -53 101
-151 184 -234 23 -23 60 -67 83 -98 24 -32 47 -58 51 -58 5 0 23 -22 39 -48
36 -59 82 -83 108 -58 19 20 16 40 -23 166 -31 103 -151 377 -229 526 -59 113
-89 180 -130 298 -13 38 -28 74 -32 80 -17 22 -44 102 -53 155 -10 65 6 106
60 157 42 39 56 41 122 13 39 -17 54 -31 78 -73 16 -28 32 -71 36 -96 8 -46
42 -123 77 -172 10 -15 27 -51 38 -80 10 -29 31 -81 45 -116 14 -35 27 -82 27
-105 0 -23 6 -46 13 -52 7 -5 27 -46 45 -90 67 -170 173 -335 214 -335 29 1
80 69 105 141 10 30 39 101 64 160 31 71 57 155 81 260 35 155 57 233 81 279
20 39 218 226 266 252 43 22 170 66 198 67 11 1 10 -4 -4 -19z"/>
<path d="M4841 8078 c-14 -15 -20 -33 -18 -59 1 -22 5 -39 10 -39 16 0 6 -40
-13 -50 -11 -6 -20 -20 -20 -31 0 -11 -7 -31 -16 -44 -11 -16 -14 -35 -10 -53
4 -15 9 -45 12 -67 4 -35 2 -41 -18 -50 -22 -10 -23 -15 -20 -95 4 -107 17
-158 49 -188 47 -43 89 -12 126 94 37 104 57 211 57 307 0 78 -3 90 -36 153
-65 123 -76 144 -80 144 -2 0 -12 -10 -23 -22z"/>
<path d="M5317 7642 c-14 -15 -33 -44 -42 -64 -15 -37 -35 -51 -35 -25 -1 6
-9 -9 -19 -34 -10 -25 -32 -66 -49 -90 -73 -108 -160 -154 -305 -163 -46 -3
-92 -8 -100 -12 -23 -8 -97 -148 -97 -181 1 -35 13 -56 75 -127 50 -58 111
-103 122 -92 6 6 -36 70 -101 156 -42 54 -44 87 -12 157 28 58 20 55 171 78
207 32 321 127 393 329 18 49 30 91 29 93 -2 1 -15 -10 -30 -25z"/>
<path d="M6345 6781 c9 -9 -331 -191 -470 -251 -123 -54 -436 -150 -570 -176
-125 -24 -414 -25 -505 -2 -36 9 -73 20 -82 23 -14 6 -18 2 -18 -18 0 -26 32
-57 57 -57 7 0 37 -9 67 -21 51 -19 56 -23 66 -62 6 -23 43 -107 83 -187 79
-160 133 -226 202 -249 59 -19 250 -26 347 -11 216 31 467 145 638 289 55 47
178 205 230 296 43 75 100 257 99 313 -1 54 -11 95 -21 90 -4 -2 -14 6 -21 16
-13 18 -15 8 -21 -90 -4 -60 -8 -129 -9 -154 -2 -31 -14 -63 -40 -105 -20 -33
-37 -69 -37 -79 0 -19 -48 -91 -56 -83 -3 2 16 49 41 103 67 143 104 305 88
386 -4 21 -12 27 -39 30 -18 2 -31 2 -29 -1z m10 -91 c4 -12 -7 -63 -24 -119
-17 -55 -29 -105 -26 -113 4 -9 -18 -24 -69 -46 -42 -18 -82 -32 -90 -32 -8 0
-16 -4 -18 -8 -5 -14 -241 -74 -538 -137 -41 -9 -111 -25 -155 -35 -157 -37
-241 -50 -330 -51 -100 -2 -131 9 -176 58 -28 29 -46 72 -32 74 4 1 61 2 125
4 224 7 360 32 628 115 209 65 432 165 599 270 72 45 97 49 106 20z"/>
</g>
</svg>
